<svg width="471" height="91" viewBox="0 0 471 91" fill="none" xmlns="http://www.w3.org/2000/svg">
<path d="M79.0395 51H37.7539C35.6247 51 33.4912 51.3228 31.4962 52.0671C14.9191 58.2516 12.3754 65.8101 5.50069 76.324C4.54893 77.7796 3.67187 79.3147 3.27768 81.0086C2.33671 85.052 3.72422 86.7925 8.40499 87.7243C9.4849 87.9393 10.5928 87.9874 11.6936 87.9624L51.2162 87.0642C53.0891 87.0216 54.9614 86.7473 56.7058 86.0642C67.5306 81.8256 73.3675 73.8302 82.54 61.0832C83.5333 59.7029 84.4186 58.215 84.8436 56.5683C86.1023 51.6918 83.4416 51.3998 79.0395 51Z" fill="#0ACFD4" stroke="#01013F" stroke-width="6"/>
<path d="M79.0395 28H37.7539C35.6247 28 33.4912 28.3228 31.4962 29.0671C14.9191 35.2516 12.3754 42.8101 5.50069 53.324C4.54893 54.7796 3.67187 56.3147 3.27768 58.0086C2.33671 62.052 3.72422 63.7925 8.40499 64.7243C9.4849 64.9393 10.5928 64.9874 11.6936 64.9624L51.2162 64.0642C53.0891 64.0216 54.9614 63.7473 56.7058 63.0642C67.5306 58.8256 73.3675 50.8302 82.54 38.0832C83.5333 36.7029 84.4186 35.215 84.8436 33.5683C86.1023 28.6918 83.4416 28.3998 79.0395 28Z" fill="#FEC133" stroke="#01013F" stroke-width="6"/>
<path d="M73.9528 3H37.7539C35.6247 3 33.4912 3.3228 31.4962 4.06707C14.9191 10.2516 12.3754 17.8101 5.50071 28.324C4.54895 29.7796 3.67188 31.3147 3.2777 33.0086C2.33673 37.052 3.72423 38.7925 8.40501 39.7243C9.48492 39.9393 10.5928 39.9874 11.6936 39.9624L51.2162 39.0642C53.0891 39.0216 54.9614 38.7473 56.7058 38.0642C66.9875 34.0383 72.7692 26.6232 81.1834 14.9663C83.0427 12.3905 84.8017 9.35611 83.0696 6.693C81.2701 3.92622 77.2533 3 73.9528 3Z" fill="#F71B75" stroke="#01013F" stroke-width="6"/>
<path d="M440.273 43.3202V32.1117H449.613V17.7898H461.444V32.1117H470.162V43.3202H461.444V73.2094H449.613V43.3202H440.273Z" fill="white"/>
<path d="M198.609 31.6531C204.044 31.7853 209.44 33.9865 213.358 38.1687C217.284 42.3587 219.692 48.4983 219.216 56.4343L219.181 57.0193H189.638C191.104 60.0844 194.144 61.4755 197.191 61.7009C198.843 61.8231 200.459 61.5961 201.758 61.1267C203.077 60.65 203.974 59.9607 204.339 59.2322L204.58 58.7488L205.093 58.9197L216.301 62.656L217.087 62.9177L216.616 63.6003C203.932 81.9916 179.833 73.9714 176.945 56.8933L176.881 56.488L176.875 56.447L176.874 56.405C176.771 47.9666 179.454 41.7011 183.569 37.5769C187.679 33.4584 193.174 31.5208 198.609 31.6531ZM207.32 48.0232C203.324 40.0469 192.456 40.0977 188.339 47.6579L188.148 48.0232L187.697 48.9245H207.771L207.32 48.0232Z" fill="white"/>
<path d="M110.246 21.526H95.9243H93.1565L122.996 73.2094L132.343 57.0194L140.758 71.5943L170.025 20.9033H155.987L141.966 45.1882L128.304 21.526H113.064L124.568 41.4521V46.3322L110.246 21.526Z" fill="white"/>
<path d="M305.772 43.9429L311.999 36.4706C268.41 14.6763 267.787 88.7767 311.999 68.8506L305.772 60.7556C279.619 68.2279 287.714 34.6026 305.772 43.9429Z" fill="white"/>
<path d="M332.547 32.1117H320.716V73.8321H332.547V55.1513C334.874 44.5877 338.263 42.595 346.246 42.6975V32.1117C339.772 30.6908 336.915 32.0434 332.547 36.4705V32.1117Z" fill="white"/>
<path d="M430.31 28.3756C422.418 28.0888 422.094 31.3378 422.215 37.716H430.31V48.3017H422.837V73.2094H411.629V48.3017H404.157V37.716H411.629C410.662 20.4884 415.49 16.9702 430.31 17.7899V28.3756Z" fill="white"/>
<path d="M396.684 74.4556H382.984V70.2759C379.893 72.1376 376.271 73.2095 372.399 73.2095C361.051 73.2094 351.851 64.0094 351.851 52.6606C351.851 41.3119 361.051 32.1118 372.399 32.1118C376.271 32.1118 379.893 33.1828 382.984 35.0444V30.2437H396.684V74.4556ZM372.399 43.6011C367.396 43.6011 363.34 47.6573 363.34 52.6606C363.34 57.6639 367.396 61.7202 372.399 61.7202C377.403 61.7202 381.459 57.6639 381.459 52.6606C381.459 47.6573 377.403 43.6011 372.399 43.6011Z" fill="white"/>
<path d="M238.521 35.8569C241.866 33.4976 245.947 32.1119 250.351 32.1118C261.7 32.1118 270.9 41.3118 270.9 52.6606C270.9 64.0094 261.7 73.2095 250.351 73.2095C245.947 73.2094 241.866 71.8228 238.521 69.4634V73.2095H225.444V16.5444H238.521V35.8569ZM250.351 43.6011C245.348 43.6013 241.293 47.6574 241.293 52.6606C241.293 57.6638 245.348 61.72 250.351 61.7202C255.355 61.7202 259.411 57.6639 259.411 52.6606C259.411 47.6573 255.355 43.6011 250.351 43.6011Z" fill="white"/>
</svg>
