<svg width="159" height="160" viewBox="0 0 159 160" fill="none" xmlns="http://www.w3.org/2000/svg">
    <path d="M79.5001 109.812V65.0932M79.5001 65.0932L99.2501 84.9682M79.5001 65.0932L59.7501 84.9682M44.9376 129.687C37.8896 129.695 31.0699 127.173 25.703 122.576C20.3361 117.979 16.7737 111.607 15.6556 104.604C14.5375 97.6015 15.9368 90.427 19.6024 84.3692C23.2679 78.3114 28.9595 73.7672 35.6551 71.5526C33.9348 62.6828 35.7127 53.4875 40.6122 45.9139C45.5117 38.3403 53.1481 32.9831 61.9042 30.9768C70.6604 28.9704 79.8487 30.4725 87.5236 35.1648C95.1984 39.8572 100.757 47.3714 103.022 56.1163C106.525 54.97 110.276 54.8321 113.852 55.7181C117.428 56.6041 120.687 58.4788 123.26 61.1304C125.833 63.7819 127.619 67.1047 128.414 70.7235C129.21 74.3423 128.984 78.1128 127.762 81.6093C133.152 83.681 137.651 87.5857 140.479 92.6462C143.306 97.7067 144.285 103.604 143.244 109.314C142.203 115.025 139.209 120.188 134.781 123.91C130.352 127.631 124.769 129.675 119 129.687H44.9376Z" stroke="#0ACFD4" stroke-width="12.8125" stroke-linecap="round" stroke-linejoin="round"/>
</svg>
