<svg width="89" height="91" viewBox="0 0 89 91" fill="none" xmlns="http://www.w3.org/2000/svg">
<path d="M79.0395 51H37.7539C35.6247 51 33.4912 51.3228 31.4962 52.0671C14.9191 58.2516 12.3754 65.8101 5.50069 76.324C4.54893 77.7796 3.67187 79.3147 3.27768 81.0086C2.33671 85.052 3.72422 86.7925 8.40499 87.7243C9.4849 87.9393 10.5928 87.9874 11.6936 87.9624L51.2162 87.0642C53.0891 87.0216 54.9614 86.7473 56.7058 86.0642C67.5306 81.8256 73.3675 73.8302 82.54 61.0832C83.5333 59.7029 84.4186 58.215 84.8436 56.5683C86.1023 51.6918 83.4416 51.3998 79.0395 51Z" fill="#0ACFD4" stroke="#01013F" stroke-width="6"/>
<path d="M79.0395 28H37.7539C35.6247 28 33.4912 28.3228 31.4962 29.0671C14.9191 35.2516 12.3754 42.8101 5.50069 53.324C4.54893 54.7796 3.67187 56.3147 3.27768 58.0086C2.33671 62.052 3.72422 63.7925 8.40499 64.7243C9.4849 64.9393 10.5928 64.9874 11.6936 64.9624L51.2162 64.0642C53.0891 64.0216 54.9614 63.7473 56.7058 63.0642C67.5306 58.8256 73.3675 50.8302 82.54 38.0832C83.5333 36.7029 84.4186 35.215 84.8436 33.5683C86.1023 28.6918 83.4416 28.3998 79.0395 28Z" fill="#FEC133" stroke="#01013F" stroke-width="6"/>
<path d="M73.9528 3H37.7539C35.6247 3 33.4912 3.3228 31.4962 4.06707C14.9191 10.2516 12.3754 17.8101 5.50071 28.324C4.54895 29.7796 3.67188 31.3147 3.2777 33.0086C2.33673 37.052 3.72423 38.7925 8.40501 39.7243C9.48492 39.9393 10.5928 39.9874 11.6936 39.9624L51.2162 39.0642C53.0891 39.0216 54.9614 38.7473 56.7058 38.0642C66.9875 34.0383 72.7692 26.6232 81.1834 14.9663C83.0427 12.3905 84.8017 9.35611 83.0696 6.693C81.2701 3.92622 77.2533 3 73.9528 3Z" fill="#F71B75" stroke="#01013F" stroke-width="6"/>
</svg>
